<svg width="372" height="301" viewBox="0 0 372 301" fill="none" xmlns="http://www.w3.org/2000/svg">
<g clip-path="url(#clip0)">
<path d="M138.37 267.394C137.081 267.775 135.635 268.395 135.307 269.606C139.363 272.048 144.379 272.608 149.174 272.488C153.968 272.368 158.753 271.568 163.558 271.538C169.894 271.538 177.034 272.608 182.124 268.966C179.863 267.609 177.267 266.836 174.594 266.724C175.534 261.12 142.13 266.283 138.37 267.394Z" fill="url(#paint0_linear)"/>
<path d="M56.9552 200.633C55.2443 200.633 52.8786 201.454 53.3011 203.025L131.378 209.03C140.566 209.74 149.765 210.441 158.995 210.441C172.936 210.441 186.813 208.82 200.722 208.059C213.817 207.348 226.934 207.398 240.04 207.459C252.175 207.519 267.098 209.59 278.884 206.578C280.658 206.128 282.443 204.776 282.327 203.045C282.274 202.245 281.83 201.414 282.158 200.673C282.348 200.31 282.65 200.01 283.024 199.813C285.442 198.402 288.526 199.502 291.314 200.083C295.752 200.997 300.386 200.439 304.441 198.502C305.201 198.202 305.849 197.693 306.3 197.041C306.515 196.711 306.593 196.317 306.519 195.936C306.445 195.555 306.224 195.214 305.899 194.979C305.57 194.825 305.209 194.746 304.843 194.749L280.943 192.987C280.061 192.858 279.158 192.934 278.313 193.208C277.373 193.598 277.426 194.639 276.666 195.069C275.43 195.76 272.621 195.389 271.206 195.469C267.583 195.66 263.961 195.85 260.328 196.02C253.097 196.347 245.852 196.624 238.593 196.85C223.808 197.321 208.949 197.601 194.132 197.851C164.825 198.302 135.508 198.542 106.212 199.613C89.7893 200.193 73.3775 200.293 56.9552 200.633Z" fill="url(#paint1_linear)"/>
<path d="M116.995 46.4455C115.62 45.9931 114.119 46.0287 112.77 46.5456C111.9 46.8397 111.105 47.3034 110.435 47.9067C109.766 48.51 109.237 49.2395 108.884 50.0483C108.877 50.1534 108.846 50.2559 108.794 50.3489C108.742 50.442 108.67 50.5234 108.582 50.5879C108.494 50.6523 108.392 50.6981 108.284 50.7224C108.176 50.7467 108.064 50.7489 107.954 50.7288C106.418 50.7254 104.934 51.2641 103.793 52.2399C102.463 53.3908 102.463 54.8019 102.283 56.4531C102.065 56.3493 101.825 56.2952 101.581 56.2952C101.337 56.2952 101.097 56.3493 100.879 56.4531C100.444 56.6564 100.047 56.927 99.7064 57.2538C99.1238 57.6971 98.6574 58.2623 98.344 58.905C97.9216 59.9959 98.3968 61.1968 98.4179 62.3577C98.4254 62.4097 98.4207 62.4626 98.4043 62.5127C98.3879 62.5629 98.3601 62.609 98.3229 62.6479C98.2795 62.6655 98.2328 62.6746 98.1856 62.6746C98.1384 62.6746 98.0917 62.6655 98.0483 62.6479C97.7209 62.5878 97.4252 62.4277 97.0978 62.3977C96.7148 62.4011 96.3451 62.5309 96.0521 62.7646C95.7591 62.9984 95.5613 63.3216 95.4925 63.6787C95.3679 64.3955 95.4076 65.1293 95.6087 65.8303C95.805 66.5318 95.7829 67.272 95.5453 67.9619C95.2922 68.4151 94.9602 68.8245 94.5632 69.1729C93.4178 70.1844 92.6724 71.537 92.451 73.0058C92.3888 73.7156 92.5906 74.4236 93.0213 75.0073C93.2425 75.2955 93.5388 75.5244 93.8812 75.6718C94.2236 75.8191 94.6005 75.8798 94.9751 75.848C96.7282 75.6278 97.3407 73.296 99.0093 72.7456C100.678 72.1952 102.547 70.3337 103.625 68.8626C104.491 67.6817 105.335 66.3107 106.793 65.8603C107.272 65.7637 107.735 65.6019 108.166 65.38C108.452 65.168 108.69 64.9023 108.863 64.5994C109.466 63.7562 109.933 62.8318 110.246 61.8573C110.774 59.9358 110.246 57.7742 111.228 56.0028C111.509 55.4947 111.899 55.0484 112.374 54.6931C112.849 54.3379 113.398 54.0816 113.985 53.9412C114.481 53.8211 115.041 53.7911 115.495 53.661C116.069 53.5039 116.612 53.257 117.1 52.9304C117.743 52.5804 118.295 52.1001 118.719 51.524C119.143 50.9479 119.426 50.2902 119.55 49.5979C119.645 48.1868 118.304 46.9259 116.995 46.4455Z" fill="#FF681C"/>
<path d="M121.314 48.8173C121.842 49.0103 122.279 49.3753 122.549 49.8468C122.818 50.3182 122.9 50.8652 122.782 51.3893C122.601 51.8131 122.332 52.1978 121.99 52.5201L120.078 54.5217L119.286 51.7395C119.204 51.2175 118.932 50.7393 118.515 50.3885C118.244 50.241 117.936 50.1634 117.623 50.1634C117.31 50.1634 117.002 50.241 116.731 50.3885C116.171 50.6587 115.674 51.079 115.178 51.3893C115.041 51.4693 114.851 51.5594 114.703 51.4793C114.555 51.3993 114.534 51.109 114.608 50.9089C115.516 48.5271 118.991 47.8666 121.314 48.8173Z" fill="#FF681C"/>
<path d="M122.613 124.105C122.671 125.042 123 125.945 123.564 126.717C124.419 127.718 125.845 128.218 127.028 128.949C127.149 129.007 127.256 129.09 127.34 129.192C127.424 129.294 127.483 129.413 127.513 129.539C127.506 129.661 127.462 129.778 127.385 129.876C127.308 129.974 127.202 130.048 127.08 130.089C126.83 130.156 126.567 130.174 126.309 130.139C125.103 129.96 123.886 129.85 122.666 129.809C122.053 129.809 121.346 129.869 120.955 129.419C120.703 129.037 120.616 128.579 120.712 128.138C120.82 126.483 120.678 124.821 120.29 123.204C120.16 122.81 120.114 122.395 120.152 121.983C120.192 121.793 120.283 121.616 120.417 121.469C120.552 121.323 120.724 121.212 120.917 121.148C121.111 121.085 121.318 121.07 121.519 121.106C121.721 121.142 121.908 121.227 122.064 121.353C122.761 121.923 122.529 123.334 122.613 124.105Z" fill="#FCBDBA"/>
<path d="M103.075 130.3C102.932 131.228 103.056 132.175 103.434 133.042C104.057 134.233 105.356 134.943 106.359 135.884C106.468 135.963 106.556 136.064 106.617 136.18C106.677 136.297 106.708 136.425 106.708 136.554C106.677 136.672 106.609 136.778 106.513 136.859C106.416 136.939 106.297 136.99 106.169 137.005C105.912 137.03 105.652 136.999 105.409 136.915C104.261 136.518 103.091 136.184 101.903 135.914C101.301 135.814 100.593 135.714 100.308 135.213C100.135 134.795 100.135 134.33 100.308 133.912C100.767 132.308 100.98 130.65 100.942 128.989C100.899 128.578 100.942 128.163 101.068 127.768C101.148 127.589 101.275 127.433 101.438 127.315C101.601 127.198 101.793 127.122 101.996 127.097C102.199 127.072 102.405 127.097 102.595 127.171C102.784 127.245 102.95 127.364 103.075 127.517C103.677 128.188 103.149 129.529 103.075 130.3Z" fill="#FCBDBA"/>
<path d="M99.231 85.2652C99.231 85.2652 109.306 99.436 115.907 103.669C115.78 105.086 115.812 106.512 116.002 107.922C116.34 110.214 117.512 112.226 117.892 114.477L119.16 122.053C119.212 122.394 119.318 122.804 119.666 122.924C119.876 122.988 120.101 122.988 120.311 122.924L123.099 122.203C122.931 117.651 123.034 113.094 123.405 108.553C123.634 106.716 123.683 104.864 123.553 103.019C123.088 99.0157 119.624 95.4429 117.216 92.2305C115.769 90.289 114.217 87.3868 112.189 85.9157C110.5 84.6947 108.113 85.2752 105.99 85.4753C104.398 85.6193 102.792 85.511 101.238 85.1551C100.92 85.014 100.57 84.9502 100.22 84.9694C99.8692 84.9887 99.5294 85.0903 99.231 85.2652Z" fill="#473F47"/>
<path d="M95.3975 85.1751C95.3975 85.1751 99.3156 101.858 103.846 108.083C103.188 109.364 102.668 110.705 102.294 112.086C102.044 113.216 101.899 114.364 101.861 115.518L100.953 129.449C102.356 129.519 103.762 129.349 105.103 128.949L110.257 116.669C111.241 114.713 111.822 112.597 111.968 110.434C111.968 106.251 107.743 90.9795 107.247 90.2089C106.138 88.4776 103.698 88.2074 101.65 87.647C100.111 87.2349 98.6578 86.5784 97.3512 85.7055C96.707 85.3252 96.1262 84.9549 95.3975 85.1751Z" fill="#473F47"/>
<path d="M131.569 72.1852C133.716 73.124 136.099 73.4708 138.444 73.1859C139.132 73.0063 139.853 72.9722 140.556 73.0858C140.25 73.4962 139.954 74.0866 140.387 74.4369C140.52 74.519 140.673 74.5673 140.831 74.577C141.4 74.6465 141.979 74.5882 142.52 74.4069C142.776 74.2867 143.059 74.2283 143.344 74.2367C143.596 74.296 143.812 74.447 143.947 74.657C144.082 74.8669 144.123 75.1188 144.062 75.3576C143.913 75.834 143.582 76.2407 143.133 76.4985C142.408 76.9537 141.568 77.2177 140.699 77.2634C139.83 77.3092 138.965 77.1349 138.191 76.7587C137.747 76.5285 137.335 76.2383 136.881 76.0081C136.007 75.6308 135.084 75.3682 134.135 75.2275C131.359 74.6829 128.63 73.9402 125.971 73.0058C125.569 72.915 125.19 72.7475 124.857 72.5135C124.525 72.2795 124.247 71.9839 124.039 71.6447C123.5 70.3838 124.493 68.2722 126.077 69.0928C127.915 70.1036 129.573 71.4046 131.569 72.1852Z" fill="#FCBDBA"/>
<path d="M118.452 64.9997C121.588 66.9425 125.086 68.3011 128.759 69.0027C128.918 69.0027 129.108 69.1028 129.15 69.2529C129.167 69.3551 129.141 69.4595 129.076 69.5431C128.326 70.9739 127.378 72.3033 126.257 73.4962C126.136 73.6475 125.981 73.7708 125.802 73.8564C125.627 73.9051 125.443 73.9196 125.261 73.899C125.08 73.8783 124.905 73.823 124.746 73.7363C122.374 72.8357 120.05 71.8349 117.776 70.734C115.752 69.8929 113.949 68.6388 112.496 67.0612C111.771 66.2426 111.341 65.2256 111.271 64.159C111.271 62.9781 112.411 60.8565 113.985 61.4369C114.692 61.6971 115.315 62.5278 115.854 62.9981C116.676 63.7151 117.544 64.3836 118.452 64.9997Z" fill="#FCA311"/>
<path d="M118.452 64.9997C121.588 66.9425 125.086 68.3011 128.759 69.0027C128.918 69.0027 129.108 69.1028 129.15 69.2529C129.167 69.3551 129.141 69.4595 129.076 69.5431C128.326 70.9739 127.378 72.3033 126.257 73.4962C126.136 73.6475 125.981 73.7708 125.802 73.8564C125.627 73.9051 125.443 73.9196 125.261 73.899C125.08 73.8783 124.905 73.823 124.746 73.7363C122.374 72.8357 120.05 71.8349 117.776 70.734C115.752 69.8929 113.949 68.6388 112.496 67.0612C111.771 66.2426 111.341 65.2256 111.271 64.159C111.271 62.9781 112.411 60.8565 113.985 61.4369C114.692 61.6971 115.315 62.5278 115.854 62.9981C116.676 63.7151 117.544 64.3836 118.452 64.9997Z" fill="url(#paint2_linear)"/>
<path d="M162.66 59.0351C163.225 59.7094 163.561 60.529 163.627 61.3873C163.692 62.2455 163.483 63.1026 163.028 63.8467C162.572 64.5909 161.89 65.1877 161.071 65.5594C160.252 65.931 159.334 66.0603 158.436 65.9304C158.436 65.9304 153.441 66.0405 154.571 70.5039L164.076 81.9726L151.973 90.9795C147.262 92.0503 147.146 87.3167 147.146 87.3167C147.276 86.467 147.133 85.6001 146.737 84.8279C146.341 84.0558 145.71 83.4139 144.925 82.985C144.14 82.5562 143.238 82.3602 142.334 82.4223C141.431 82.4845 140.567 82.8019 139.856 83.3335C139.145 83.8652 138.618 84.5868 138.344 85.405C138.07 86.2232 138.061 87.1005 138.318 87.9237C138.575 88.7468 139.087 89.478 139.787 90.0227C140.487 90.5674 141.344 90.9007 142.246 90.9795C146.544 92.3205 144.876 96.2836 144.876 96.2836L132.773 105.29L108.176 75.6978L120.163 66.691C124.873 65.6201 124.989 70.3538 124.989 70.3538C124.877 71.0555 124.951 71.7727 125.204 72.4409C125.457 73.109 125.881 73.7071 126.438 74.1814C126.995 74.6557 127.668 74.9914 128.396 75.1582C129.124 75.3251 129.884 75.3179 130.609 75.1372C131.333 74.9566 131.999 74.6082 132.546 74.1234C133.093 73.6386 133.504 73.0325 133.743 72.3597C133.982 71.6869 134.04 70.9685 133.913 70.269C133.786 69.5695 133.478 68.9108 133.016 68.3522C132.63 67.8933 132.151 67.5131 131.607 67.2344C131.062 66.9558 130.464 66.7846 129.847 66.731C125.591 65.4 127.26 61.3969 127.26 61.3969L139.479 52.2599L148.984 63.7387C148.984 63.7387 153.208 65.3199 154.581 61.2468C154.672 60.3939 155.03 59.5862 155.609 58.9277C156.188 58.2693 156.963 57.7903 157.832 57.5524C158.701 57.3145 159.625 57.3285 160.486 57.5928C161.346 57.8571 162.104 58.3594 162.66 59.0351Z" fill="#FCA311"/>
<path d="M162.66 59.0351C163.225 59.7094 163.561 60.529 163.627 61.3873C163.692 62.2455 163.483 63.1026 163.028 63.8467C162.572 64.5909 161.89 65.1877 161.071 65.5594C160.252 65.931 159.334 66.0603 158.436 65.9304C158.436 65.9304 153.441 66.0405 154.571 70.5039L164.076 81.9726L151.973 90.9795C147.262 92.0503 147.146 87.3167 147.146 87.3167C147.276 86.467 147.133 85.6001 146.737 84.8279C146.341 84.0558 145.71 83.4139 144.925 82.985C144.14 82.5562 143.238 82.3602 142.334 82.4223C141.431 82.4845 140.567 82.8019 139.856 83.3335C139.145 83.8652 138.618 84.5868 138.344 85.405C138.07 86.2232 138.061 87.1005 138.318 87.9237C138.575 88.7468 139.087 89.478 139.787 90.0227C140.487 90.5674 141.344 90.9007 142.246 90.9795C146.544 92.3205 144.876 96.2836 144.876 96.2836L132.773 105.29L108.176 75.6978L120.163 66.691C124.873 65.6201 124.989 70.3538 124.989 70.3538C124.877 71.0555 124.951 71.7727 125.204 72.4409C125.457 73.109 125.881 73.7071 126.438 74.1814C126.995 74.6557 127.668 74.9914 128.396 75.1582C129.124 75.3251 129.884 75.3179 130.609 75.1372C131.333 74.9566 131.999 74.6082 132.546 74.1234C133.093 73.6386 133.504 73.0325 133.743 72.3597C133.982 71.6869 134.04 70.9685 133.913 70.269C133.786 69.5695 133.478 68.9108 133.016 68.3522C132.63 67.8933 132.151 67.5131 131.607 67.2344C131.062 66.9558 130.464 66.7846 129.847 66.731C125.591 65.4 127.26 61.3969 127.26 61.3969L139.479 52.2599L148.984 63.7387C148.984 63.7387 153.208 65.3199 154.581 61.2468C154.672 60.3939 155.03 59.5862 155.609 58.9277C156.188 58.2693 156.963 57.7903 157.832 57.5524C158.701 57.3145 159.625 57.3285 160.486 57.5928C161.346 57.8571 162.104 58.3594 162.66 59.0351Z" fill="url(#paint3_linear)"/>
<path d="M122.666 85.1351C125.253 87.1366 127.946 89.2882 131.115 89.8086C131.724 89.938 132.355 89.9506 132.97 89.8458C133.585 89.741 134.171 89.5208 134.695 89.1982C134.876 89.0963 135.023 88.9487 135.12 88.7719C135.217 88.5951 135.26 88.3961 135.244 88.1974C135.128 87.707 134.494 87.5369 133.977 87.4468C131.556 87.1332 129.232 86.3423 127.154 85.1251C126.384 84.6082 125.653 84.0396 124.968 83.4238L119.825 79.0804C119.762 79.008 119.683 78.9498 119.594 78.91C119.504 78.8702 119.406 78.8498 119.307 78.8503C119.096 78.8503 118.97 79.0804 118.874 79.2606C118.556 79.8753 118.315 80.5236 118.156 81.192C117.998 81.9226 118.156 82.0227 118.822 82.443C120.152 83.297 121.434 84.1943 122.666 85.1351Z" fill="url(#paint4_linear)"/>
<path d="M125.053 81.4723C126.842 82.956 129.04 83.9277 131.389 84.2744C132.088 84.2834 132.777 84.4371 133.407 84.7247C132.974 85.035 132.509 85.5654 132.836 85.9757C132.941 86.0899 133.076 86.1761 133.227 86.2259C133.753 86.4388 134.324 86.5346 134.896 86.5061C135.178 86.4653 135.467 86.4858 135.74 86.5662C135.851 86.6272 135.947 86.7082 136.025 86.8046C136.102 86.9011 136.158 87.011 136.191 87.1281C136.223 87.2453 136.231 87.3673 136.213 87.4872C136.196 87.6072 136.154 87.7227 136.089 87.8271C135.813 88.2511 135.374 88.5563 134.864 88.6778C134.034 88.9256 133.15 88.9579 132.303 88.7713C131.456 88.5847 130.677 88.1861 130.048 87.617C129.678 87.2767 129.372 86.8864 128.992 86.5561C128.265 85.962 127.455 85.4669 126.584 85.085C124.079 83.8239 121.679 82.3854 119.403 80.7817C119.043 80.5885 118.729 80.3285 118.479 80.0172C118.228 79.7059 118.047 79.3498 117.945 78.9703C117.797 77.6093 119.371 75.838 120.659 77.0589C122.159 78.5 123.374 80.1512 125.053 81.4723Z" fill="#FCBDBA"/>
<path d="M95.3974 87.3167C95.5866 87.5315 95.8249 87.7027 96.0944 87.8171C97.1571 88.3915 98.2617 88.8932 99.4 89.3183C102.358 90.3215 105.595 90.2967 108.535 89.2482C109.712 88.8469 110.816 88.2765 111.809 87.5569C112.186 87.3137 112.503 86.9962 112.738 86.6262C113.019 86.0228 113.107 85.3549 112.992 84.7047C112.728 81.3322 112.337 77.8495 112.992 74.577C113.202 73.4528 113.557 72.3572 114.048 71.3145C114.903 69.8916 115.611 68.3935 116.16 66.8411C116.349 65.8871 116.315 64.9056 116.061 63.9652C115.808 63.0249 115.341 62.1484 114.692 61.3969C113.319 59.7356 110.806 58.2645 108.588 59.0151C106.026 59.9298 103.804 61.5376 102.199 63.6386C100.448 65.9915 99.0607 68.5696 98.0798 71.2945C97.6574 72.3653 97.2455 73.4361 96.9181 74.537C96.2189 77.1999 95.7666 79.9156 95.5663 82.6532C95.4502 83.794 95.3445 84.9349 95.2178 86.0758C95.1181 86.4964 95.1819 86.937 95.3974 87.3167Z" fill="#FCA311"/>
<path d="M108.535 89.2482C109.712 88.8469 110.816 88.2765 111.809 87.5569C112.186 87.3137 112.503 86.9962 112.739 86.6262C113.019 86.0228 113.107 85.3549 112.992 84.7047C112.728 81.3321 112.337 77.8495 112.992 74.577C112.57 74.1767 112.094 73.8164 111.63 73.4561C110.574 72.6355 109.053 71.0143 107.521 71.1243C107.891 72.6555 108.187 74.2167 108.409 75.7779C108.63 77.3391 108.546 78.9603 108.81 80.5015C109.16 83.2285 109.093 85.9891 108.609 88.6978C108.564 88.8783 108.54 89.0628 108.535 89.2482Z" fill="url(#paint5_linear)"/>
<path d="M121.388 76.2182C121.47 76.2581 121.544 76.3131 121.603 76.3801C121.663 76.4472 121.708 76.5248 121.736 76.6085C121.739 76.7749 121.675 76.9361 121.557 77.0589C120.597 78.3422 119.394 79.4452 118.008 80.3114C117.875 80.4121 117.713 80.4746 117.544 80.4915C117.349 80.4717 117.167 80.3907 117.026 80.2613C114.914 78.7302 112.802 77.259 110.742 75.6578C109.41 74.7623 108.235 73.675 107.257 72.4353C106.539 71.3164 105.991 70.1069 105.631 68.8426C104.374 65.0897 108.176 63.4585 110.721 66.2106C114.08 69.8534 117.142 73.4061 121.388 76.2182Z" fill="#FCA311"/>
<path d="M120.87 129.559C120.815 129.435 120.796 129.299 120.814 129.165C120.833 129.032 120.889 128.905 120.976 128.798C121.208 128.588 121.588 128.688 121.884 128.798C122.537 129.099 123.22 129.337 123.922 129.509C124.63 129.685 125.381 129.611 126.035 129.299C126.394 129.099 126.742 128.798 127.154 128.828C127.361 128.858 127.56 128.929 127.735 129.039C128.369 129.35 129.049 129.569 129.752 129.689C130.048 129.713 130.334 129.802 130.586 129.949C130.663 130 130.719 130.074 130.745 130.159C130.745 130.36 130.544 130.51 130.343 130.58C128.147 131.39 125.686 131.09 123.342 130.85C123.079 130.815 122.812 130.815 122.549 130.85C122.159 130.92 121.683 131.11 121.356 130.85C121.076 130.468 120.908 130.023 120.87 129.559Z" fill="#473F47"/>
<path d="M100.012 135.263C99.978 135.134 99.9783 134.998 100.013 134.869C100.048 134.74 100.117 134.621 100.213 134.523C100.477 134.343 100.836 134.523 101.121 134.633C101.735 135.003 102.382 135.321 103.054 135.584C103.735 135.824 104.485 135.824 105.166 135.584C105.546 135.434 105.927 135.173 106.338 135.253C106.538 135.309 106.725 135.401 106.888 135.524C107.469 135.927 108.114 136.241 108.799 136.454C109.093 136.512 109.368 136.635 109.602 136.815C109.636 136.842 109.664 136.875 109.684 136.913C109.704 136.951 109.715 136.992 109.718 137.035C109.718 137.235 109.486 137.355 109.274 137.405C106.983 137.955 104.585 137.405 102.294 136.855C102.036 136.784 101.77 136.747 101.501 136.745C101.111 136.745 100.614 136.905 100.319 136.564C100.105 136.161 99.9995 135.714 100.012 135.263Z" fill="#473F47"/>
<path d="M119.571 55.6826C119.392 56.233 119.212 56.7834 119.064 57.3438C118.897 58.1797 118.664 59.0026 118.367 59.8057C118.217 60.2062 117.977 60.5711 117.663 60.8751C117.349 61.1792 116.97 61.4153 116.551 61.567C116.124 61.6965 115.66 61.6647 115.257 61.4782C114.853 61.2918 114.541 60.9652 114.386 60.5663C113.879 60.6764 113.699 61.2668 113.71 61.7672C113.795 62.2567 113.698 62.759 113.435 63.1883C112.96 63.7187 112.031 63.4985 111.408 63.1182C110.464 62.5159 109.731 61.6618 109.301 60.6641C108.87 59.6664 108.762 58.57 108.989 57.514C109.507 55.2822 109.486 52.6102 110.827 50.6787C111.309 50.0269 111.923 49.4724 112.633 49.0475C113.255 48.6157 113.981 48.3372 114.745 48.2369C115.28 48.2071 115.817 48.2475 116.34 48.357C118.579 48.7172 120.48 49.0275 120.49 51.4593C120.421 52.9042 120.111 54.3297 119.571 55.6826Z" fill="#FCBDBA"/>
<path d="M116.815 51.7495C116.467 51.7495 116.065 51.6695 115.759 51.8696C115.453 52.0698 115.432 52.5201 115.242 52.8704C114.872 53.5209 113.932 53.611 113.224 53.9512C112.796 54.1686 112.439 54.4938 112.193 54.8911C111.947 55.2884 111.821 55.7424 111.83 56.2029C111.844 55.9083 111.767 55.6162 111.609 55.3623C111.566 55.3021 111.512 55.2508 111.448 55.2114C111.384 55.172 111.312 55.1454 111.237 55.1332C111.162 55.121 111.085 55.1235 111.011 55.1406C110.936 55.1576 110.867 55.1888 110.806 55.2322C110.711 55.3392 110.655 55.4727 110.647 55.6125C110.619 55.8983 110.668 56.1863 110.79 56.4491C110.912 56.7118 111.103 56.9406 111.345 57.1136C111.125 57.5428 110.781 57.9036 110.353 58.1536C109.924 58.4036 109.429 58.5323 108.926 58.5247C108.608 58.5319 108.298 58.4327 108.049 58.2445C107.893 58.0923 107.777 57.907 107.712 57.7041C107.11 56.1029 108.028 54.3916 108.25 52.7003C108.271 52.1031 108.374 51.511 108.556 50.9389C108.752 50.5348 109.02 50.1658 109.348 49.8481C110.334 48.7262 111.639 47.8961 113.108 47.4563C114.523 47.086 117.333 47.2761 118.441 48.3369C118.693 48.6405 118.852 49.0036 118.901 49.3868C118.95 49.77 118.888 50.1586 118.72 50.5104C118.552 50.8622 118.286 51.1637 117.95 51.3822C117.614 51.6007 117.222 51.7277 116.815 51.7495Z" fill="#FF681C"/>
<path d="M116.192 203.676V184.951C118.79 179.607 123.912 183.25 123.912 183.25C124.712 184.044 125.744 184.593 126.876 184.826C128.008 185.059 129.187 184.966 130.263 184.557C131.338 184.149 132.259 183.445 132.909 182.536C133.558 181.627 133.905 180.555 133.905 179.457C133.905 178.36 133.558 177.287 132.909 176.378C132.259 175.469 131.338 174.765 130.263 174.357C129.187 173.949 128.008 173.855 126.876 174.088C125.744 174.321 124.712 174.87 123.912 175.664C119.075 178.667 116.192 173.963 116.192 173.963V155.229H135.952C135.952 155.229 140.957 152.497 137.747 147.913C136.909 147.155 136.33 146.177 136.084 145.104C135.838 144.032 135.937 142.914 136.367 141.895C136.798 140.876 137.541 140.003 138.5 139.388C139.459 138.773 140.591 138.444 141.749 138.444C142.908 138.444 144.04 138.773 144.999 139.388C145.958 140.003 146.701 140.876 147.132 141.895C147.562 142.914 147.661 144.032 147.415 145.104C147.169 146.177 146.59 147.155 145.752 147.913C145.752 147.913 141.908 152.767 147.547 155.229H167.307V203.676H116.192Z" fill="url(#paint6_linear)"/>
<path d="M78.3308 202.675H74.7612L111.302 111.245C111.425 110.95 111.639 110.697 111.916 110.518C112.193 110.34 112.52 110.244 112.855 110.244C113.125 110.244 113.391 110.306 113.631 110.424C113.871 110.543 114.076 110.715 114.23 110.926C114.384 111.137 114.481 111.38 114.514 111.634C114.547 111.888 114.514 112.146 114.418 112.386L78.3308 202.675Z" fill="#FCA311"/>
<path d="M99.7381 202.675H96.1685L133.111 110.224H136.68L99.7381 202.675Z" fill="#FCA311"/>
<path d="M127.344 124.665H108.461L109.412 122.283H128.295L127.344 124.665Z" fill="#FCA311"/>
<path d="M121.536 139.186H102.653L103.614 136.805H122.497L121.536 139.186Z" fill="#FCA311"/>
<path d="M115.738 153.707H96.855L97.8055 151.316H116.689L115.738 153.707Z" fill="#FCA311"/>
<path d="M109.94 168.219H91.0566L92.0071 165.837H110.89L109.94 168.219Z" fill="#FCA311"/>
<path d="M104.131 182.74H85.248L86.2091 180.358H105.082L104.131 182.74Z" fill="#FCA311"/>
<path d="M109.507 124.665L104.649 136.805H122.529L121.578 139.186H103.73L98.8825 151.316H116.72L115.77 153.697H97.9003L93.0529 165.837H110.911L109.961 168.219H92.1024L87.2443 180.358H105.092L104.131 182.74H86.2938L78.3308 202.675H74.7612L111.302 111.245C111.461 110.931 111.724 110.676 112.052 110.518C112.379 110.361 112.752 110.31 113.113 110.374C113.474 110.438 113.803 110.613 114.048 110.872C114.293 111.13 114.442 111.459 114.471 111.805C114.47 111.997 114.435 112.186 114.365 112.366L110.405 122.283H128.242L127.292 124.665H109.507Z" fill="url(#paint7_linear)"/>
<path d="M99.7381 202.675H96.1685L133.111 110.224H136.68L99.7381 202.675Z" fill="url(#paint8_linear)"/>
<path d="M276.835 123.624C276.307 124.047 275.675 124.337 274.997 124.465C274.375 124.49 273.755 124.384 273.181 124.155L264.394 121.383C263.73 121.873 263.287 122.583 263.154 123.37C263.021 124.158 263.207 124.964 263.676 125.626C264.537 126.52 265.658 127.154 266.897 127.447L272.927 129.499C274.319 130.115 275.838 130.43 277.374 130.422C278.91 130.413 280.425 130.081 281.809 129.449C283.605 128.878 285.579 128.168 286.445 126.567C287.311 124.965 286.678 122.844 286.931 120.972C287.265 119.784 287.501 118.573 287.639 117.35C287.639 116.299 286.731 114.718 285.411 114.938C284.27 115.128 283.51 117.009 282.908 117.8C281.21 120.025 279.162 121.989 276.835 123.624Z" fill="white"/>
<path d="M263.296 120.912C263.204 120.687 263.064 120.483 262.884 120.312C262.795 120.226 262.682 120.167 262.558 120.142C262.434 120.117 262.305 120.128 262.187 120.172C262.072 120.239 261.979 120.336 261.919 120.451C261.859 120.566 261.835 120.695 261.849 120.822C261.858 120.868 261.856 120.914 261.845 120.959C261.834 121.003 261.814 121.045 261.786 121.083C261.722 121.143 261.606 121.083 261.511 121.083C260.518 120.902 259.504 120.762 258.491 120.662C258.382 120.642 258.269 120.649 258.165 120.685C258.06 120.72 257.968 120.781 257.897 120.863C257.827 120.944 257.781 121.042 257.765 121.145C257.748 121.249 257.762 121.356 257.804 121.453C257.914 121.771 258.082 122.07 258.301 122.333C258.818 123.134 259.008 124.185 259.832 124.705C260.335 124.984 260.921 125.1 261.5 125.036C262.081 125.036 262.652 124.905 263.232 124.935C263.616 125.013 264.017 124.971 264.373 124.815C264.506 124.721 264.612 124.596 264.68 124.453C264.748 124.309 264.777 124.152 264.764 123.995C264.703 123.5 264.518 123.027 264.225 122.614C263.898 122.073 263.592 121.493 263.296 120.912Z" fill="#FDB9A9"/>
<path d="M287.797 183.59C284.439 182.87 285.094 187.383 284.206 189.064C283.645 189.928 282.93 190.693 282.094 191.326C281.271 191.976 280.732 192.893 280.584 193.898C280.564 194.085 280.605 194.274 280.7 194.439C280.871 194.637 281.111 194.771 281.376 194.819C283.296 195.35 285.359 195.157 287.132 194.278C287.962 193.907 288.652 193.303 289.107 192.547C289.475 191.732 289.648 190.851 289.614 189.965C289.719 188.084 290.606 184.181 287.797 183.59Z" fill="#FDB9A9"/>
<path d="M284.819 192.897C284.819 192.897 275.251 193.288 279.306 196.13C283.362 198.972 289.413 195.439 290.005 194.789C290.596 194.138 290.11 193.028 290.11 193.028L284.819 192.897Z" fill="#FCA311"/>
<path d="M289.582 194.148C288.737 195.149 284.238 196.46 282.242 196.32C280.246 196.18 278.461 195.319 278.662 194.088C278.863 192.857 282.369 190.025 283.034 190.035C283.7 190.045 284.217 191.496 285.548 191.797C286.142 191.89 286.752 191.838 287.32 191.645C287.887 191.453 288.393 191.126 288.79 190.696C288.909 190.545 289.077 190.437 289.269 190.388C289.46 190.339 289.663 190.352 289.846 190.425C290.124 191.02 290.246 191.669 290.2 192.318C290.154 192.967 289.942 193.595 289.582 194.148Z" fill="white"/>
<path d="M299.341 185.372C295.982 184.631 296.637 189.155 295.75 190.826C295.189 191.692 294.474 192.461 293.638 193.098C292.815 193.743 292.277 194.657 292.128 195.66C292.11 195.85 292.15 196.041 292.244 196.21C292.418 196.405 292.656 196.539 292.92 196.59C294.84 197.117 296.901 196.924 298.675 196.05C299.504 195.672 300.193 195.065 300.65 194.308C301.017 193.497 301.19 192.619 301.157 191.737C301.263 189.835 302.15 185.942 299.341 185.372Z" fill="#FDB9A9"/>
<path d="M296.362 194.639C296.362 194.639 286.794 195.019 290.849 197.881C294.905 200.743 300.956 197.181 301.548 196.53C302.139 195.88 301.653 194.769 301.653 194.769L296.362 194.639Z" fill="#FCA311"/>
<path d="M301.125 195.87C300.281 196.87 295.782 198.191 293.786 198.051C291.79 197.911 290.005 197.051 290.205 195.82C290.406 194.589 293.912 191.757 294.578 191.817C295.243 191.877 295.76 193.278 297.091 193.568C297.685 193.664 298.295 193.613 298.862 193.422C299.43 193.232 299.936 192.906 300.333 192.477C300.451 192.325 300.62 192.216 300.811 192.167C301.003 192.118 301.207 192.132 301.389 192.207C301.657 192.793 301.773 193.431 301.727 194.069C301.681 194.706 301.475 195.323 301.125 195.87Z" fill="white"/>
<path d="M290.67 144.21L295.169 189.085L301.653 188.324C304.22 177.376 303.586 144.621 303.586 144.621L290.67 144.21Z" fill="#473F47"/>
<path d="M295.169 142.999L290.67 187.864L284.164 187.103C280.458 158.721 283.52 141.068 283.52 141.068L295.169 142.999Z" fill="#473F47"/>
<path d="M284.111 126.777C284.027 125.956 283.795 125.136 283.71 124.295C283.499 122.604 283.531 120.894 283.805 119.211C284.111 117.416 284.683 115.67 285.506 114.027C286.245 112.606 287.618 112.026 289.117 111.285C290.393 110.635 291.774 110.192 293.204 109.974C294.211 109.887 295.225 109.941 296.214 110.134C299.277 110.685 303.301 112.136 305.392 114.467C306.965 116.179 307.145 118.641 307.198 120.912C307.261 124.045 307.198 127.177 306.987 130.31C306.987 130.76 306.934 131.21 306.892 131.671C306.721 135.155 306.165 138.614 305.233 141.989C305.059 143.043 304.456 143.991 303.554 144.631C301.157 145.952 297.503 145.221 294.915 144.881C291.483 144.42 287.966 143.94 284.925 142.359C284.293 142.102 283.783 141.636 283.488 141.048C283.337 140.307 283.437 139.54 283.774 138.856C284.83 135.654 284.006 132.281 284.006 129.009C284.006 128.418 284.08 127.818 284.08 127.217C284.111 127.077 284.111 126.927 284.111 126.777Z" fill="white"/>
<path d="M294.884 132.571C295.698 133.051 296.595 133.39 297.535 133.572C300.333 134.343 303.206 134.753 305.983 135.574C306.172 135.608 306.348 135.691 306.49 135.814C306.604 135.98 306.656 136.177 306.638 136.374C306.651 137.145 306.53 137.913 306.279 138.646C306.198 139.012 305.975 139.337 305.656 139.557C305.25 139.697 304.805 139.697 304.399 139.557L293.933 137.455C293.185 137.274 292.414 137.186 291.642 137.195C290.726 137.296 289.828 137.508 288.97 137.825C287.365 138.312 285.712 138.648 284.038 138.826C284.127 136.933 284.37 135.049 284.766 133.192C284.92 132.643 285.14 132.112 285.421 131.611C285.759 131.115 286.156 130.659 286.604 130.25C288.294 128.578 289.466 126.487 291.177 124.815C292.075 123.935 293.194 123.374 293.986 122.434C294.303 122.053 297.049 118.781 296.785 118.431C297.313 119.051 298.622 118.431 299.098 119.071C299.393 119.471 299.098 120.012 298.823 120.422C296.8 123.633 295.388 127.156 294.651 130.83C294.44 131.681 294.123 131.981 294.884 132.571Z" fill="url(#paint9_linear)"/>
<path d="M286.351 91.4899C287.322 92.0811 288.084 92.9333 288.541 93.9376C288.998 94.942 289.128 96.0526 288.915 97.1274C288.701 98.2022 288.155 99.1922 287.344 99.9707C286.534 100.749 285.496 101.281 284.365 101.498C284.365 101.498 278.366 103.639 281.735 108.583L298.401 118.641L287.84 134.433C282.623 137.625 280.363 131.941 280.363 131.941C280.135 130.868 279.575 129.883 278.752 129.115C277.93 128.346 276.884 127.828 275.749 127.628C274.613 127.427 273.44 127.553 272.381 127.989C271.322 128.426 270.424 129.152 269.804 130.076C269.185 131 268.871 132.078 268.903 133.172C268.935 134.266 269.312 135.326 269.985 136.215C270.658 137.105 271.597 137.783 272.68 138.163C273.764 138.542 274.942 138.606 276.064 138.346C281.873 138.236 281.619 143.71 281.619 143.71L271.058 159.502L227.927 133.482L238.435 117.83C243.653 114.648 245.913 120.322 245.913 120.322C246.136 121.399 246.695 122.388 247.518 123.161C248.34 123.935 249.388 124.456 250.527 124.66C251.665 124.863 252.842 124.739 253.905 124.303C254.968 123.867 255.869 123.138 256.492 122.212C257.114 121.287 257.429 120.205 257.397 119.108C257.365 118.01 256.986 116.947 256.31 116.056C255.634 115.164 254.692 114.485 253.605 114.105C252.518 113.726 251.336 113.664 250.211 113.927C244.402 114.037 244.666 108.563 244.666 108.563L255.375 92.6108L272.051 102.678C272.051 102.678 277.828 102.919 277.712 97.4144C277.527 96.6915 277.498 95.9408 277.625 95.2069C277.752 94.4729 278.033 93.7705 278.451 93.1412C279.283 91.9468 280.573 91.1065 282.048 90.7982C283.522 90.4899 285.066 90.7381 286.351 91.4899Z" fill="#FCA311"/>
<path d="M312.067 123.845C312.499 124.559 312.853 125.313 313.123 126.096C313.464 127.469 313.5 128.893 313.228 130.28C313.1 131.638 312.586 132.939 311.739 134.042C309.954 136.044 306.765 136.234 303.998 135.984C300.857 135.709 297.756 135.119 294.747 134.223C294.467 134.163 294.204 134.047 293.976 133.882C293.732 133.621 293.564 133.303 293.49 132.962C293.259 132.132 293.107 131.285 293.036 130.43C296.204 129.569 299.71 130.27 303.016 129.809C303.241 129.808 303.463 129.756 303.663 129.658C303.863 129.559 304.035 129.417 304.165 129.243C304.295 129.069 304.379 128.868 304.411 128.656C304.443 128.445 304.42 128.229 304.346 128.028C304.188 126.266 303.037 124.725 302.498 123.024C301.971 121.387 302.015 119.632 302.625 118.02C302.807 117.452 303.116 116.928 303.532 116.484C303.947 116.04 304.46 115.687 305.033 115.448C306.353 115.038 306.86 116.019 307.589 116.939C309.266 119.129 310.763 121.437 312.067 123.845Z" fill="white"/>
<path d="M291.716 129.309C291.591 129.213 291.441 129.15 291.283 129.129C291.161 129.141 291.045 129.183 290.947 129.252C290.848 129.32 290.771 129.413 290.723 129.519C290.63 129.735 290.524 129.945 290.406 130.149C290.247 130.316 290.051 130.447 289.832 130.532C289.612 130.617 289.375 130.654 289.139 130.64C288.665 130.595 288.187 130.595 287.713 130.64C287.537 130.674 287.374 130.75 287.238 130.86C287.108 130.981 287.017 131.133 286.974 131.3C286.893 131.64 286.903 131.994 287.003 132.329C287.102 132.665 287.288 132.971 287.544 133.222C288.06 133.717 288.694 134.088 289.392 134.303C290.105 134.601 290.895 134.691 291.663 134.563C292.084 134.447 292.486 134.275 292.856 134.052L294.398 133.242C294.527 133.184 294.642 133.102 294.736 133.002C295.074 132.601 294.609 131.4 294.303 131C293.532 130.32 292.661 129.75 291.716 129.309Z" fill="#FDB9A9"/>
<path d="M290.68 105.431C290.68 104.57 290.754 103.699 290.849 102.859C290.944 102.018 291.061 101.357 291.208 100.617C291.218 100.398 291.278 100.183 291.384 99.9879C291.49 99.7927 291.639 99.6215 291.821 99.486C293.042 98.7953 294.445 98.4482 295.866 98.4853C296.403 98.4494 296.943 98.5198 297.45 98.6921C297.957 98.8644 298.421 99.1348 298.812 99.486C299.289 100.061 299.573 100.758 299.626 101.488C299.675 103.382 299.476 105.274 299.034 107.122C298.811 108.573 298.73 110.04 298.791 111.505C298.043 111.977 297.183 112.265 296.288 112.346C295.872 112.342 295.459 112.278 295.063 112.156C294.843 112.108 294.648 111.988 294.514 111.815C294.467 111.655 294.467 111.485 294.514 111.325C294.524 111.172 294.524 111.018 294.514 110.865C294.576 110.008 294.558 109.147 294.461 108.293C294.463 108.256 294.456 108.219 294.442 108.184C294.427 108.149 294.405 108.118 294.377 108.093C294.319 108.073 294.255 108.073 294.197 108.093H293.944C293.494 108.138 293.041 108.138 292.592 108.093C292.051 108.042 291.548 107.808 291.177 107.432C290.748 106.849 290.57 106.133 290.68 105.431Z" fill="#FDB9A9"/>
<path d="M292.56 99.9464C292.244 99.9464 291.958 100.106 291.684 99.9464C291.397 99.7207 291.144 99.458 290.934 99.1658C290.429 98.5316 290.182 97.7467 290.237 96.9541C290.257 96.5954 290.381 96.249 290.596 95.9533C290.831 95.6843 291.132 95.4746 291.473 95.3428C292.128 95.0372 292.857 94.9025 293.585 94.9525C294.64 95.0825 295.624 95.5277 296.394 96.2235C296.556 96.3839 296.755 96.5071 296.975 96.5838C297.177 96.624 297.386 96.624 297.588 96.5838C298.924 96.4772 300.252 96.8645 301.294 97.6646C301.886 98.155 302.351 98.7855 302.963 99.2158C303.576 99.6461 304.178 99.8063 304.494 100.357C304.627 100.612 304.68 100.899 304.648 101.182C304.617 101.465 304.501 101.734 304.315 101.958C303.922 102.397 303.381 102.694 302.783 102.799C302.849 102.961 302.88 103.135 302.874 103.309C302.868 103.483 302.825 103.655 302.749 103.813C302.672 103.971 302.563 104.114 302.427 104.232C302.292 104.35 302.133 104.441 301.96 104.5C301.716 104.535 301.48 104.61 301.263 104.72C301.115 104.83 301.051 105 300.904 105.11C300.555 105.381 300.101 105.471 299.953 105.931C299.909 106.125 299.891 106.323 299.9 106.521C299.875 106.815 299.749 107.093 299.541 107.312C299.404 107.452 299.161 107.802 298.96 107.842C298.76 107.882 298.58 107.652 298.517 107.452C298.269 106.603 298.333 105.7 298.696 104.89C298.958 104.499 299.11 104.051 299.14 103.589C299.14 103.129 298.443 102.769 298.084 103.039C297.725 103.309 297.704 103.959 297.323 103.829C297.559 103.182 297.542 102.477 297.274 101.841C297.007 101.205 296.507 100.682 295.866 100.367C295.155 100.16 294.413 100.063 293.669 100.076C293.322 100.007 292.968 99.9702 292.613 99.9664L292.56 99.9464Z" fill="#473F47"/>
<path d="M293.944 108.113C294.993 107.923 296.019 107.635 297.007 107.252C297.096 108.041 296.895 108.834 296.44 109.499C295.984 110.165 295.3 110.661 294.504 110.905C294.583 110.049 294.583 109.188 294.504 108.333C294.503 108.258 294.472 108.187 294.419 108.133C294.361 108.113 294.298 108.113 294.24 108.133H293.997L293.944 108.113Z" fill="#DE9F93"/>
<path d="M260.878 115.308C261.038 115.526 261.141 115.776 261.18 116.038C261.218 116.301 261.191 116.569 261.099 116.819C260.916 117.32 260.649 117.79 260.307 118.21L258.649 120.532C258.216 121.133 257.593 121.813 256.864 121.753C255.048 121.633 254.245 117.17 254.921 115.849C255.703 114.197 259.684 113.897 260.878 115.308Z" fill="#FDB9A9"/>
<path d="M269.432 155.229V203.676H218.316V184.941C218.316 184.941 221.2 180.198 226.036 183.24C226.836 184.034 227.868 184.583 229 184.816C230.132 185.049 231.312 184.956 232.387 184.547C233.462 184.139 234.384 183.435 235.033 182.526C235.682 181.617 236.029 180.545 236.029 179.447C236.029 178.35 235.682 177.277 235.033 176.368C234.384 175.459 233.462 174.755 232.387 174.347C231.312 173.939 230.132 173.845 229 174.078C227.868 174.311 226.836 174.86 226.036 175.654C226.036 175.654 220.914 179.297 218.316 173.953V155.229H238.076C243.716 152.767 239.871 147.913 239.871 147.913C239.033 147.155 238.454 146.177 238.208 145.104C237.962 144.032 238.061 142.914 238.492 141.895C238.922 140.876 239.665 140.003 240.625 139.388C241.584 138.773 242.716 138.444 243.874 138.444C245.032 138.444 246.164 138.773 247.123 139.388C248.083 140.003 248.826 140.876 249.256 141.895C249.687 142.914 249.786 144.032 249.54 145.104C249.294 146.177 248.715 147.155 247.877 147.913C244.708 152.497 249.672 155.229 249.672 155.229H269.432Z" fill="#FCA311"/>
<path d="M269.432 155.229V203.676H218.316V184.941C218.316 184.941 221.2 180.198 226.036 183.24C226.836 184.034 227.868 184.583 229 184.816C230.132 185.049 231.312 184.956 232.387 184.547C233.462 184.139 234.384 183.435 235.033 182.526C235.682 181.617 236.029 180.545 236.029 179.447C236.029 178.35 235.682 177.277 235.033 176.368C234.384 175.459 233.462 174.755 232.387 174.347C231.312 173.939 230.132 173.845 229 174.078C227.868 174.311 226.836 174.86 226.036 175.654C226.036 175.654 220.914 179.297 218.316 173.953V155.229H238.076C243.716 152.767 239.871 147.913 239.871 147.913C239.033 147.155 238.454 146.177 238.208 145.104C237.962 144.032 238.061 142.914 238.492 141.895C238.922 140.876 239.665 140.003 240.625 139.388C241.584 138.773 242.716 138.444 243.874 138.444C245.032 138.444 246.164 138.773 247.123 139.388C248.083 140.003 248.826 140.876 249.256 141.895C249.687 142.914 249.786 144.032 249.54 145.104C249.294 146.177 248.715 147.155 247.877 147.913C244.708 152.497 249.672 155.229 249.672 155.229H269.432Z" fill="url(#paint10_linear)"/>
<path d="M184.923 131C184.92 132.097 184.57 133.168 183.92 134.076C183.269 134.983 182.348 135.686 181.273 136.094C180.198 136.501 179.019 136.595 177.887 136.364C176.756 136.132 175.723 135.585 174.922 134.793C170.085 131.791 167.202 136.494 167.202 136.494V155.229H218.317V106.782H167.202V125.506C169.8 130.85 174.922 127.207 174.922 127.207C175.723 126.415 176.756 125.868 177.887 125.637C179.019 125.405 180.198 125.499 181.273 125.906C182.348 126.314 183.269 127.017 183.92 127.924C184.57 128.832 184.92 129.903 184.923 131Z" fill="#FCA311"/>
<path d="M188.757 162.544C187.919 163.302 187.339 164.28 187.093 165.353C186.848 166.425 186.946 167.543 187.377 168.562C187.808 169.581 188.551 170.454 189.51 171.069C190.469 171.685 191.601 172.013 192.759 172.013C193.918 172.013 195.049 171.685 196.009 171.069C196.968 170.454 197.711 169.581 198.141 168.562C198.572 167.543 198.671 166.425 198.425 165.353C198.179 164.28 197.6 163.302 196.762 162.544C196.762 162.544 192.918 157.691 198.557 155.229H186.951C186.951 155.229 191.967 157.961 188.757 162.544Z" fill="#FCA311"/>
<path d="M167.202 106.782V125.506C169.8 130.85 174.922 127.207 174.922 127.207C175.721 126.413 176.754 125.864 177.886 125.631C179.017 125.398 180.197 125.492 181.272 125.9C182.348 126.308 183.269 127.012 183.918 127.921C184.567 128.83 184.914 129.902 184.914 131C184.914 132.098 184.567 133.17 183.918 134.079C183.269 134.988 182.348 135.692 181.272 136.1C180.197 136.508 179.017 136.602 177.886 136.369C176.754 136.136 175.721 135.587 174.922 134.793C170.085 131.791 167.202 136.494 167.202 136.494V155.229H186.951C186.951 155.229 191.957 157.961 188.746 162.544C187.908 163.302 187.329 164.28 187.083 165.353C186.837 166.425 186.936 167.543 187.366 168.562C187.797 169.581 188.54 170.454 189.499 171.069C190.459 171.685 191.59 172.013 192.749 172.013C193.907 172.013 195.039 171.685 195.998 171.069C196.957 170.454 197.7 169.581 198.131 168.562C198.562 167.543 198.66 166.425 198.414 165.353C198.169 164.28 197.589 163.302 196.751 162.544C196.751 162.544 192.907 157.69 198.547 155.229H218.317V106.782H167.202Z" fill="url(#paint11_linear)"/>
<path d="M167.202 155.229V203.676H218.317V184.941C218.317 184.941 221.2 180.198 226.037 183.24C226.837 184.034 227.869 184.583 229.001 184.816C230.133 185.049 231.312 184.956 232.387 184.547C233.463 184.139 234.384 183.435 235.034 182.526C235.683 181.617 236.03 180.545 236.03 179.447C236.03 178.35 235.683 177.277 235.034 176.368C234.384 175.459 233.463 174.755 232.387 174.347C231.312 173.939 230.133 173.845 229.001 174.078C227.869 174.311 226.837 174.86 226.037 175.654C226.037 175.654 220.915 179.297 218.317 173.953V155.229H198.568C192.928 157.691 196.772 162.544 196.772 162.544C197.61 163.302 198.19 164.28 198.436 165.353C198.682 166.425 198.583 167.543 198.152 168.562C197.721 169.581 196.978 170.454 196.019 171.069C195.06 171.685 193.928 172.013 192.77 172.013C191.611 172.013 190.48 171.685 189.52 171.069C188.561 170.454 187.818 169.581 187.388 168.562C186.957 167.543 186.858 166.425 187.104 165.353C187.35 164.28 187.929 163.302 188.767 162.544C191.935 157.961 186.972 155.229 186.972 155.229H167.202Z" fill="#FCA311"/>
<path d="M116.192 203.676V184.951C118.79 179.607 123.912 183.25 123.912 183.25C124.712 184.044 125.744 184.593 126.876 184.826C128.008 185.059 129.187 184.966 130.263 184.557C131.338 184.149 132.259 183.445 132.909 182.536C133.558 181.627 133.905 180.555 133.905 179.457C133.905 178.36 133.558 177.287 132.909 176.378C132.259 175.469 131.338 174.765 130.263 174.357C129.187 173.949 128.008 173.855 126.876 174.088C125.744 174.321 124.712 174.87 123.912 175.664C119.075 178.667 116.192 173.963 116.192 173.963V155.229H135.952C135.952 155.229 140.957 152.497 137.747 147.913C136.909 147.155 136.33 146.177 136.084 145.104C135.838 144.032 135.937 142.914 136.367 141.895C136.798 140.876 137.541 140.003 138.5 139.388C139.459 138.773 140.591 138.444 141.749 138.444C142.908 138.444 144.04 138.773 144.999 139.388C145.958 140.003 146.701 140.876 147.132 141.895C147.562 142.914 147.661 144.032 147.415 145.104C147.169 146.177 146.59 147.155 145.752 147.913C145.752 147.913 141.908 152.767 147.547 155.229H167.307V203.676H116.192Z" fill="#FCA311"/>
<path d="M116.192 203.676V184.951C118.79 179.607 123.912 183.25 123.912 183.25C124.712 184.044 125.744 184.593 126.876 184.826C128.008 185.059 129.187 184.966 130.263 184.557C131.338 184.149 132.259 183.445 132.909 182.536C133.558 181.627 133.905 180.555 133.905 179.457C133.905 178.36 133.558 177.287 132.909 176.378C132.259 175.469 131.338 174.765 130.263 174.357C129.187 173.949 128.008 173.855 126.876 174.088C125.744 174.321 124.712 174.87 123.912 175.664C119.075 178.667 116.192 173.963 116.192 173.963V155.229H135.952C135.952 155.229 140.957 152.497 137.747 147.913C136.909 147.155 136.33 146.177 136.084 145.104C135.838 144.032 135.937 142.914 136.367 141.895C136.798 140.876 137.541 140.003 138.5 139.388C139.459 138.773 140.591 138.444 141.749 138.444C142.908 138.444 144.04 138.773 144.999 139.388C145.958 140.003 146.701 140.876 147.132 141.895C147.562 142.914 147.661 144.032 147.415 145.104C147.169 146.177 146.59 147.155 145.752 147.913C145.752 147.913 141.908 152.767 147.547 155.229H167.307V203.676H116.192Z" fill="url(#paint12_linear)"/>
<path d="M184.986 131.01C184.983 132.107 184.633 133.178 183.983 134.086C183.332 134.993 182.411 135.696 181.336 136.104C180.261 136.511 179.082 136.605 177.95 136.374C176.819 136.142 175.786 135.595 174.985 134.803C174.985 134.803 169.863 131.16 167.265 136.504V155.229H147.505C141.866 152.767 145.71 147.913 145.71 147.913C146.548 147.155 147.127 146.177 147.373 145.104C147.619 144.032 147.52 142.914 147.089 141.895C146.659 140.876 145.916 140.003 144.957 139.388C143.997 138.773 142.866 138.444 141.707 138.444C140.549 138.444 139.417 138.773 138.458 139.388C137.499 140.003 136.756 140.876 136.325 141.895C135.894 142.914 135.795 144.032 136.041 145.104C136.287 146.177 136.867 147.155 137.705 147.913C140.873 152.497 135.909 155.229 135.909 155.229H116.192V106.782H135.761C141.401 109.243 137.557 114.097 137.557 114.097C136.719 114.855 136.139 115.833 135.894 116.906C135.648 117.978 135.746 119.096 136.177 120.115C136.608 121.134 137.351 122.007 138.31 122.622C139.269 123.238 140.401 123.566 141.559 123.566C142.718 123.566 143.849 123.238 144.809 122.622C145.768 122.007 146.511 121.134 146.942 120.115C147.372 119.096 147.471 117.978 147.225 116.906C146.979 115.833 146.4 114.855 145.562 114.097C142.394 109.514 147.357 106.782 147.357 106.782H167.307V125.516C167.307 125.516 170.19 130.26 175.027 127.217C175.828 126.425 176.861 125.878 177.993 125.647C179.124 125.415 180.303 125.509 181.378 125.916C182.453 126.324 183.375 127.027 184.025 127.934C184.676 128.842 185.025 129.913 185.028 131.01H184.986Z" fill="#FCA311"/>
<path d="M197.511 224.101C197.53 225.2 197.2 226.278 196.565 227.198C195.93 228.117 195.019 228.835 193.949 229.258C192.879 229.682 191.699 229.791 190.563 229.573C189.427 229.355 188.385 228.819 187.574 228.034C187.574 228.034 182.399 224.462 179.885 229.836L180.17 248.56L160.411 248.83C154.729 246.448 158.499 241.545 158.499 241.545C159.322 240.776 159.883 239.792 160.11 238.718C160.338 237.645 160.221 236.532 159.775 235.522C159.328 234.512 158.574 233.652 157.607 233.052C156.641 232.452 155.507 232.14 154.352 232.156C153.197 232.172 152.073 232.515 151.125 233.141C150.178 233.767 149.45 234.648 149.035 235.67C148.62 236.691 148.537 237.807 148.797 238.874C149.057 239.941 149.648 240.909 150.494 241.655C153.778 246.188 148.815 248.99 148.815 248.99L129.055 249.26L128.316 200.813L147.885 200.553C153.567 202.935 149.797 207.839 149.797 207.839C148.974 208.607 148.413 209.592 148.186 210.665C147.959 211.738 148.076 212.852 148.522 213.862C148.968 214.871 149.722 215.732 150.689 216.332C151.655 216.931 152.789 217.244 153.944 217.228C155.099 217.212 156.223 216.869 157.171 216.242C158.118 215.616 158.846 214.736 159.261 213.714C159.676 212.692 159.759 211.576 159.499 210.51C159.239 209.443 158.648 208.474 157.802 207.729C154.518 203.195 159.481 200.393 159.481 200.393L179.431 200.123L179.716 218.857C179.716 218.857 182.673 223.561 187.457 220.448C188 219.9 188.654 219.461 189.38 219.159C190.106 218.856 190.889 218.696 191.682 218.687C193.211 218.676 194.683 219.24 195.775 220.254C196.868 221.269 197.492 222.652 197.511 224.101Z" fill="#FCA311"/>
<path d="M135.476 200.994C134.768 201.734 134.219 203.365 135.339 204.056C135.739 204.261 136.183 204.377 136.638 204.396L142.615 205.087C142.436 205.087 145.562 238.462 146.787 245.558C146.935 246.398 147.304 247.449 148.202 247.559C148.471 247.544 148.733 247.469 148.966 247.34C149.199 247.212 149.397 247.033 149.543 246.819C150.406 245.537 150.898 244.064 150.969 242.545C152.454 231.651 153.16 220.675 153.081 209.69C153.081 207.519 152.997 205.247 151.856 203.355C151.156 202.326 150.237 201.446 149.159 200.771C148.081 200.096 146.867 199.64 145.593 199.432C142.182 198.702 137.958 198.372 135.476 200.994Z" fill="url(#paint13_linear)"/>
<path d="M149.86 270.267V270.397C150.114 271.007 150.916 271.207 151.592 271.287C152.231 271.354 152.873 271.38 153.514 271.367C153.822 271.378 154.13 271.337 154.423 271.247C154.691 271.135 154.943 270.991 155.173 270.817L157.021 269.516C157.54 269.177 158.015 268.78 158.436 268.335C158.852 267.877 159.071 267.288 159.048 266.684C159.026 266.385 158.908 266.101 158.71 265.868C158.512 265.635 158.243 265.466 157.94 265.383C157.554 265.338 157.164 265.338 156.778 265.383C156.349 265.435 155.913 265.368 155.523 265.19C155.133 265.013 154.806 264.732 154.581 264.382C154.505 264.055 154.32 263.761 154.053 263.541C153.784 263.418 153.479 263.382 153.187 263.441C152.546 263.472 151.913 263.59 151.307 263.792C151.002 263.895 150.725 264.062 150.496 264.28C150.268 264.499 150.094 264.762 149.987 265.053C149.922 265.322 149.894 265.597 149.903 265.873C149.94 266.443 149.94 267.015 149.903 267.584C149.818 268.296 149.776 269.011 149.776 269.726C149.782 269.909 149.81 270.09 149.86 270.267Z" fill="#262836"/>
<path d="M167.782 270.497C166.538 271.036 165.257 271.498 163.949 271.878C163.428 272.091 162.845 272.123 162.301 271.968C162.088 271.87 161.9 271.73 161.749 271.557C161.597 271.385 161.487 271.184 161.425 270.967C161.311 270.525 161.264 270.07 161.287 269.616C161.368 268.913 161.52 268.22 161.742 267.544C161.858 266.914 161.953 266.283 162.037 265.653C162.175 264.742 162.301 263.842 162.417 262.941L165.744 263.611C166.093 263.681 166.42 264.952 166.631 265.223C166.786 265.422 166.986 265.585 167.216 265.701C167.447 265.817 167.701 265.883 167.962 265.893C168.529 265.815 169.1 265.772 169.673 265.763C170.042 265.845 170.372 266.041 170.611 266.32C170.85 266.599 170.984 266.945 170.993 267.304C170.99 267.661 170.909 268.014 170.754 268.34C170.6 268.665 170.375 268.957 170.095 269.196C169.535 269.676 168.892 270.062 168.194 270.337L167.782 270.497Z" fill="#262836"/>
<path d="M167.835 266.974C166.962 267.444 166.055 267.856 165.121 268.205H165.037C163.495 268.775 161.773 266.484 161.773 266.484C161.773 266.484 159.598 253.754 159.661 248.47C159.735 244.847 158.827 239.683 157.464 230.316C157.126 239.883 155.416 244.087 155.849 247.519C156.514 252.733 155.722 265.683 155.722 265.683C155.722 265.683 154.264 268.205 152.67 267.865H152.575C151.615 267.658 150.672 267.384 149.755 267.044C149.755 267.044 147.896 249.21 147.896 244.507C147.896 239.803 148.107 235.59 148.107 235.59L147.136 220.699L151.276 214.994L151.614 214.864L151.93 214.564L156.524 211.372C156.524 211.372 156.524 212.112 156.44 213.373L160.01 215.184L160.348 215.425L160.696 215.505L166.674 216.505C166.674 216.505 168.237 239.353 168.786 244.026C169.335 248.7 167.835 266.974 167.835 266.974Z" fill="#FCA311"/>
<path d="M167.835 266.974C166.962 267.444 166.055 267.856 165.121 268.205H165.037C163.495 268.775 161.773 266.484 161.773 266.484C161.773 266.484 159.598 253.754 159.661 248.47C159.735 244.847 158.827 239.683 157.464 230.316C157.126 239.883 155.416 244.087 155.849 247.519C156.514 252.733 155.722 265.683 155.722 265.683C155.722 265.683 154.264 268.205 152.67 267.865H152.575C151.615 267.658 150.672 267.384 149.755 267.044C149.755 267.044 147.896 249.21 147.896 244.507C147.896 239.803 148.107 235.59 148.107 235.59L147.136 220.699L151.276 214.994L151.614 214.864L151.93 214.564L156.524 211.372C156.524 211.372 156.524 212.112 156.44 213.373L160.01 215.184L160.348 215.425L160.696 215.505L166.674 216.505C166.674 216.505 168.237 239.353 168.786 244.026C169.335 248.7 167.835 266.974 167.835 266.974Z" fill="url(#paint14_linear)"/>
<path d="M195.97 187.333C196.044 187.283 196.132 187.255 196.223 187.253C196.466 187.253 196.477 187.623 196.392 187.844C196.171 188.457 195.851 189.035 195.442 189.555C195.309 189.685 195.23 189.855 195.22 190.035C195.22 190.215 195.389 190.345 195.516 190.476C195.904 190.903 196.18 191.411 196.322 191.959C196.463 192.507 196.465 193.079 196.329 193.628C196.036 194.724 195.433 195.724 194.586 196.52C194.382 196.766 194.129 196.972 193.841 197.125C193.552 197.277 193.235 197.375 192.907 197.411C191.766 197.411 190.341 196.08 189.887 195.159C189.721 194.699 189.685 194.206 189.781 193.729C189.877 193.252 190.103 192.807 190.436 192.437C191.783 190.311 193.69 188.552 195.97 187.333Z" fill="#A67C52"/>
<path d="M162.882 176.825C163.252 177.185 163.822 177.556 163.664 178.026C163.579 178.276 163.294 178.426 163.083 178.606C162.562 179.13 162.281 179.828 162.301 180.548C162.324 181.264 162.217 181.978 161.985 182.66C161.853 182.997 161.602 183.281 161.275 183.463C160.948 183.645 160.564 183.715 160.189 183.66C159.756 183.55 159.323 183.19 158.901 183.36C158.478 183.53 158.478 183.86 158.309 184.141C158.079 184.486 157.751 184.762 157.362 184.939C156.974 185.116 156.541 185.186 156.113 185.141C155.265 185.021 154.449 184.753 153.705 184.351C153.389 184.232 153.114 184.03 152.913 183.77C152.79 183.517 152.76 183.231 152.828 182.96C153.089 182.145 153.516 181.387 154.085 180.728C154.996 179.398 155.544 177.875 155.68 176.295C155.764 175.194 155.68 173.983 156.43 173.132C157.486 171.971 159.883 171.981 161.14 172.832C162.396 173.683 161.721 175.694 162.882 176.825Z" fill="#A67C52"/>
<path d="M161.383 171.841C161.235 172.116 161.013 172.347 160.738 172.512C160.179 172.822 159.682 173.182 159.175 173.513C158.664 173.832 158.304 174.327 158.172 174.894C157.95 175.894 158.542 177.035 158.172 178.046C158.035 178.256 157.686 178.126 157.549 177.926C157.412 177.726 157.327 177.476 157.116 177.356C156.746 177.155 156.303 177.496 156.144 177.866C155.981 178.296 155.999 178.77 156.196 179.188C156.393 179.606 156.753 179.936 157.2 180.108C157.148 180.428 156.715 180.558 156.366 180.518C156.022 180.428 155.667 180.385 155.31 180.388C154.518 180.528 154.254 181.599 153.43 181.709C153.157 181.692 152.893 181.615 152.656 181.485C152.42 181.355 152.218 181.174 152.068 180.958L151.107 179.958C150.952 179.763 150.782 179.579 150.6 179.407C150.378 179.247 150.019 179.237 149.839 179.047C149.66 178.857 149.839 178.406 149.649 178.166C149.559 178.077 149.447 178.011 149.322 177.976C149.045 177.844 148.825 177.625 148.698 177.357C148.572 177.09 148.546 176.789 148.625 176.505C148.651 176.434 148.651 176.356 148.625 176.285C148.625 176.185 148.477 176.145 148.371 176.095C148.08 175.916 147.865 175.644 147.767 175.328C147.668 175.013 147.691 174.674 147.833 174.373C147.994 174.028 148.223 173.715 148.509 173.453C148.609 173.305 148.752 173.189 148.921 173.116C149.089 173.043 149.276 173.018 149.459 173.042L149.618 171.731C149.614 171.509 149.662 171.289 149.759 171.087C149.856 170.884 149.999 170.705 150.177 170.561C150.356 170.418 150.566 170.314 150.793 170.256C151.019 170.199 151.256 170.19 151.487 170.23L151.17 169.149C151.112 169.011 151.112 168.857 151.17 168.719C151.257 168.623 151.377 168.56 151.508 168.539C151.876 168.439 152.255 168.379 152.638 168.359C152.501 168.055 152.395 167.74 152.321 167.418C152.297 167.372 152.288 167.319 152.295 167.268C152.303 167.217 152.326 167.169 152.362 167.13C152.399 167.091 152.446 167.064 152.499 167.051C152.552 167.038 152.608 167.04 152.659 167.058C152.799 167.078 152.942 167.078 153.082 167.058C153.082 167.058 152.87 166.137 152.86 166.057C152.796 165.768 152.853 165.466 153.018 165.216C153.134 165.092 153.28 164.996 153.444 164.939C153.608 164.881 153.785 164.863 153.958 164.886C154.301 164.944 154.63 165.059 154.93 165.226C154.93 164.876 155.384 164.696 155.754 164.666C156.465 164.628 157.175 164.761 157.818 165.054C158.461 165.346 159.015 165.787 159.429 166.337C159.497 166.434 159.575 166.524 159.661 166.607C159.83 166.709 160.016 166.784 160.21 166.827C160.51 166.953 160.776 167.141 160.99 167.376C161.204 167.611 161.36 167.889 161.446 168.189C161.604 168.783 161.668 169.397 161.636 170.01C161.66 170.481 161.614 170.952 161.499 171.411C161.478 171.558 161.439 171.703 161.383 171.841Z" fill="#2F3554"/>
<path d="M156.134 183.19C157.013 183.539 157.867 183.944 158.689 184.401C158.943 184.53 159.163 184.711 159.334 184.931C159.425 185.052 159.481 185.193 159.495 185.341C159.51 185.489 159.484 185.637 159.418 185.772C159.196 186.142 158.668 186.012 158.267 185.872C156.406 185.274 154.442 185.016 152.48 185.111C152.348 185.132 152.214 185.118 152.091 185.07C151.968 185.022 151.861 184.943 151.783 184.841C151.737 184.719 151.72 184.588 151.733 184.458C151.745 184.329 151.788 184.203 151.856 184.091C152.86 182.179 154.497 182.489 156.134 183.19Z" fill="white"/>
<path d="M192.284 197.941C191.902 198.84 191.339 199.659 190.626 200.353C189.939 201.084 189.232 201.784 188.514 202.465C186.779 204.054 184.948 205.548 183.032 206.938C181.731 208.028 180.18 208.816 178.502 209.24C177.821 209.391 177.109 209.349 176.453 209.12C175.92 208.868 175.437 208.529 175.027 208.119C174.541 207.659 168.902 201.504 168.807 201.504C168.487 201.667 168.239 201.933 168.11 202.255C167.295 203.854 166.791 205.58 166.621 207.348C166.552 208.138 166.552 208.931 166.621 209.72C166.842 212.412 167.835 215.184 166.853 217.726C166.657 218.264 166.331 218.75 165.903 219.147C165.489 219.49 165.013 219.758 164.498 219.938C163.588 220.291 162.638 220.546 161.668 220.699C161.113 220.795 160.552 220.852 159.988 220.869C157.876 220.949 155.87 220.569 153.8 220.659C152.047 220.749 150.304 221.179 148.519 221.119C148.267 221.165 148.008 221.16 147.759 221.102C147.51 221.044 147.277 220.936 147.076 220.785C146.875 220.633 146.711 220.443 146.596 220.226C146.48 220.009 146.416 219.771 146.407 219.528C145.723 215.964 145.37 212.351 145.351 208.73C145.351 207.469 145.277 206.198 145.192 204.937C145.119 203.866 145.425 201.144 144.136 200.934C140.862 200.333 137.462 201.094 134.156 200.653C134.248 198.604 135.167 196.666 136.723 195.239C137.486 194.629 138.314 194.095 139.194 193.648C140.207 192.961 141.116 192.146 141.897 191.226C144.143 188.598 146.989 186.487 150.22 185.051C150.734 184.813 151.276 184.631 151.835 184.511H151.973C152.053 184.502 152.135 184.502 152.216 184.511C152.922 184.455 153.633 184.495 154.328 184.631C159.04 185.372 163.702 186.374 168.289 187.633C168.895 187.762 169.468 188 169.979 188.334C170.336 188.639 170.642 188.993 170.887 189.385C172.176 191.226 173.433 193.088 174.732 194.929C175.851 196.51 176.949 198.492 178.597 199.653C182.183 198.271 185.569 196.462 188.672 194.268C189.105 193.958 189.665 193.618 190.161 193.828C190.326 193.898 190.474 194 190.594 194.128C191.809 195.129 192.875 196.23 192.284 197.941Z" fill="white"/>
</g>
<defs>
<linearGradient id="paint0_linear" x1="157.2" y1="241.264" x2="159.164" y2="281.096" gradientUnits="userSpaceOnUse">
<stop offset="0.01"/>
<stop offset="0.08" stop-opacity="0.69"/>
<stop offset="0.21" stop-opacity="0.32"/>
<stop offset="1" stop-opacity="0"/>
</linearGradient>
<linearGradient id="paint1_linear" x1="50405.7" y1="2221.67" x2="50416.2" y2="4723.27" gradientUnits="userSpaceOnUse">
<stop offset="0.01"/>
<stop offset="0.08" stop-opacity="0.69"/>
<stop offset="0.21" stop-opacity="0.32"/>
<stop offset="1" stop-opacity="0"/>
</linearGradient>
<linearGradient id="paint2_linear" x1="-36267.3" y1="15865" x2="-35947.5" y2="15996.5" gradientUnits="userSpaceOnUse">
<stop offset="0.01"/>
<stop offset="0.08" stop-opacity="0.69"/>
<stop offset="0.21" stop-opacity="0.32"/>
<stop offset="1" stop-opacity="0"/>
</linearGradient>
<linearGradient id="paint3_linear" x1="174.323" y1="141.379" x2="90.4246" y2="-38.3798" gradientUnits="userSpaceOnUse">
<stop offset="0.01"/>
<stop offset="0.08" stop-opacity="0.69"/>
<stop offset="0.21" stop-opacity="0.32"/>
<stop offset="1" stop-opacity="0"/>
</linearGradient>
<linearGradient id="paint4_linear" x1="2708.24" y1="1067.13" x2="2774.05" y2="1567.23" gradientUnits="userSpaceOnUse">
<stop offset="0.01"/>
<stop offset="0.08" stop-opacity="0.69"/>
<stop offset="0.21" stop-opacity="0.32"/>
<stop offset="1" stop-opacity="0"/>
</linearGradient>
<linearGradient id="paint5_linear" x1="-14525.8" y1="-2465.29" x2="-14675" y2="-2350.24" gradientUnits="userSpaceOnUse">
<stop offset="0.01"/>
<stop offset="0.08" stop-opacity="0.69"/>
<stop offset="0.21" stop-opacity="0.32"/>
<stop offset="1" stop-opacity="0"/>
</linearGradient>
<linearGradient id="paint6_linear" x1="8795.54" y1="8476.37" x2="8669.85" y2="20132.8" gradientUnits="userSpaceOnUse">
<stop offset="0.01"/>
<stop offset="0.08" stop-opacity="0.69"/>
<stop offset="0.21" stop-opacity="0.32"/>
<stop offset="1" stop-opacity="0"/>
</linearGradient>
<linearGradient id="paint7_linear" x1="8817.81" y1="14705.5" x2="4157.33" y2="16253.8" gradientUnits="userSpaceOnUse">
<stop offset="0.01"/>
<stop offset="0.08" stop-opacity="0.69"/>
<stop offset="0.21" stop-opacity="0.32"/>
<stop offset="1" stop-opacity="0"/>
</linearGradient>
<linearGradient id="paint8_linear" x1="5400.8" y1="13465.6" x2="-1062.62" y2="15089.9" gradientUnits="userSpaceOnUse">
<stop offset="0.01"/>
<stop offset="0.08" stop-opacity="0.69"/>
<stop offset="0.21" stop-opacity="0.32"/>
<stop offset="1" stop-opacity="0"/>
</linearGradient>
<linearGradient id="paint9_linear" x1="6779.72" y1="2175.3" x2="8104.89" y2="5487.6" gradientUnits="userSpaceOnUse">
<stop offset="0.01"/>
<stop offset="0.08" stop-opacity="0.69"/>
<stop offset="0.21" stop-opacity="0.32"/>
<stop offset="1" stop-opacity="0"/>
</linearGradient>
<linearGradient id="paint10_linear" x1="8876.2" y1="8930.38" x2="22776.4" y2="16566.6" gradientUnits="userSpaceOnUse">
<stop offset="0.01"/>
<stop offset="0.08" stop-opacity="0.69"/>
<stop offset="0.21" stop-opacity="0.32"/>
<stop offset="1" stop-opacity="0"/>
</linearGradient>
<linearGradient id="paint11_linear" x1="10347.8" y1="16617.6" x2="13998.1" y2="1237.56" gradientUnits="userSpaceOnUse">
<stop offset="0.01"/>
<stop offset="0.08" stop-opacity="0.69"/>
<stop offset="0.21" stop-opacity="0.32"/>
<stop offset="1" stop-opacity="0"/>
</linearGradient>
<linearGradient id="paint12_linear" x1="8896.24" y1="5910.8" x2="8333.68" y2="25299.9" gradientUnits="userSpaceOnUse">
<stop offset="0.01"/>
<stop offset="0.08" stop-opacity="0.69"/>
<stop offset="0.21" stop-opacity="0.32"/>
<stop offset="1" stop-opacity="0"/>
</linearGradient>
<linearGradient id="paint13_linear" x1="2796.53" y1="10604.2" x2="5801.53" y2="11838.6" gradientUnits="userSpaceOnUse">
<stop offset="0.01"/>
<stop offset="0.08" stop-opacity="0.69"/>
<stop offset="0.21" stop-opacity="0.32"/>
<stop offset="1" stop-opacity="0"/>
</linearGradient>
<linearGradient id="paint14_linear" x1="3707.33" y1="13616.6" x2="6218.34" y2="14960.9" gradientUnits="userSpaceOnUse">
<stop offset="0.01"/>
<stop offset="0.08" stop-opacity="0.69"/>
<stop offset="0.21" stop-opacity="0.32"/>
<stop offset="1" stop-opacity="0"/>
</linearGradient>
<clipPath id="clip0">
<rect width="372" height="301" fill="white"/>
</clipPath>
</defs>
</svg>
